<svg fill="none" xmlns="http://www.w3.org/2000/svg" viewBox="0.5 0.22 401 109.66"> <path d="M112.35 109.7C112.2 109.55 111.35 109.3 110.4 109.15C108.3 108.85 103.8 106.45 101.4 104.35C100.4 103.5 99 101.5 98.3 99.95C97.1 97.35 95.85 91.2 96.35 90.4C96.45 90.15 99.35 90 102.7 90H108.85L109.2 92.45C109.45 94.35 109.85 95.2 111 96.15C114.6 99.2 122.65 98.1 123.95 94.45C124.65 92.45 124.7 92.7 123.4 91.5C122.2 90.4 119.85 89.6 115.75 88.85C107.65 87.35 102.95 85.6 99.9 82.9C97.4 80.75 95.7 74.85 96.65 71.5C96.8 71.1 97.05 70 97.25 69.05C97.5 68.1 98.65 66.35 99.95 65C103.85 60.95 107.8 59.5 115.5 59.25C120.15 59.1 121.2 59.2 124.75 60.4C128.05 61.5 129.2 62.2 131.6 64.5C133.15 66 134.9 68.3 135.5 69.55C136.5 71.85 137.6 77.9 137.15 78.65C137.05 78.85 134.15 79 130.7 79C124.6 79 124.5 79 124.5 77.9C124.5 77.25 124.25 75.9 123.95 74.85C123.25 72.3 120.55 71.05 116.1 71.25C112.15 71.4 110.25 72.2 109.5 74C108.55 76.25 110.5 78.5 114.05 79.3C115 79.5 116.1 79.75 118.5 80.25C121.5 80.9 122.05 81 123 81.25C128.65 82.65 130.7 83.65 133.35 86.25C136.25 89.15 137.15 91.5 136.95 95.7C136.8 98.45 136.05 100.65 134.35 103.3C133.15 105.15 128.25 108 124.5 109C122.2 109.65 112.85 110.15 112.35 109.7Z" fill="white"></path> <path d="M0.5 55.15C0.5 12.2 0.650002 1 1.15 0.95C3.5 0.8 25.95 1 26.75 1.2C30.65 2.15 34.7 4.4 36.65 6.7C37.95 8.25 40.3 13 40.75 15C41.15 16.85 41.15 37.9 40.75 40C40.1 43.5 39.75 44.5 38.5 47.25C36.75 51.1 34.1 53.75 30.15 55.6C27.05 57.1 26.15 58.3 27.9 58.8C29.75 59.35 34 61.65 35.1 62.7C38.1 65.6 39.5 67.85 40.55 71.5C41.35 74.45 41.6 108.4 40.8 108.9C40.5 109.05 37.4 109.25 33.9 109.3C28.3 109.35 27.5 109.25 27.5 108.55C27.35 88.6 27 71.45 26.7 70.5C26.3 69.1 23.4 66 22.4 65.95C22.05 65.95 21.3 65.8 20.75 65.7C20.2 65.55 18.65 65.4 17.25 65.35L14.75 65.25L14.6 87.15C14.55 99.15 14.3 109 14.1 109C13.9 109.05 10.75 109.1 7.1 109.15L0.5 109.25V55.15ZM23.4 50.65C24.35 50.15 25.55 48.9 26.1 47.8C27 46 27.1 44.85 27.1 33.8C27.15 27.15 26.95 20.95 26.75 20C26.35 18.25 23.6 15.05 22.4 14.95C22.05 14.95 21.3 14.8 20.75 14.7C20.2 14.55 18.65 14.4 17.25 14.35L14.75 14.25L14.6 33.05L14.5 51.85L18.1 51.7C20.35 51.6 22.3 51.2 23.4 50.65Z" fill="white"></path> <path d="M48.5 63C48.55 19 48.6 16.6 49.5 14.1C50.85 10.25 53.95 6.05 56.75 4.15C58.15 3.25 59.5 2.35 59.75 2.1C60.85 1.25 64.95 0.400003 68.4 0.250003C77.65 -0.149997 85.95 6.15 88.5 15.5C89.35 18.55 89.65 108.35 88.85 108.85C88.55 109.05 85.4 109.2 81.9 109.2C75.85 109.25 75.5 109.2 75.5 108.25C75.45 107.7 75.45 97.2 75.45 84.9C75.45 68.05 75.3 62.45 74.85 62.15C74.2 61.7 64.15 61.5 63.15 61.85C62.65 62.05 62.5 67.25 62.5 85.55C62.5 98.45 62.35 109 62.15 109.05C61.9 109.05 58.75 109.1 55.1 109.15L48.5 109.25V63ZM74.85 47.85C75.3 47.55 75.4 43.9 75.3 33.35C75.1 17 74.95 16.3 71.4 14.6C68.05 12.95 65.05 14 63.25 17.45C62.7 18.55 62.55 21.9 62.5 33.55L62.45 48.25H68.35C71.6 48.25 74.5 48.1 74.85 47.85Z" fill="white"></path> <path d="M152.55 108.9C149.1 108.3 146.15 106.05 144.9 103.1C144.5 102.15 144.3 87.25 144.2 52C144.15 24.65 144.2 1.9 144.3 1.5C144.5 0.8 146.55 0.699997 161 0.699997L177.5 0.650002V7.3C177.5 12.35 177.35 13.95 176.85 14.15C176.45 14.3 172.25 14.4 167.5 14.45C162.75 14.45 158.75 14.6 158.55 14.75C158.4 14.95 158.25 22.55 158.25 31.65V48.25L166.25 48.35L174.25 48.45V55V61.55L166.25 61.65L158.25 61.75L158.1 76.5C157.95 91.75 158.2 94.55 159.9 95.45C160.4 95.7 164.55 95.9 169.15 95.85L177.5 95.75V102.4C177.5 107.35 177.35 109 176.9 109.05C171.85 109.25 154.1 109.15 152.55 108.9Z" fill="white"></path> <path d="M184.5 102.65C184.5 97.65 184.65 96 185.15 96C185.45 96 192.9 95.9 201.6 95.85L217.5 95.75V102.4C217.5 106 217.35 109 217.15 109C216.9 109 209.5 109.05 200.6 109.15L184.5 109.25V102.65Z" fill="white"></path> <path d="M224.5 55.2C224.5 12.35 224.65 1.05 225.15 0.900001C225.95 0.650001 249.5 0.900001 250.5 1.15C250.9 1.25 251.95 1.5 252.75 1.75C253.6 1.95 255.05 2.55 256 3C257.9 4 262 7.65 262 8.45C262 8.7 262.3 9.25 262.65 9.6C263 9.95 263.75 11.6 264.25 13.25C265.85 18.05 265.6 38 263.95 41.1C263.7 41.6 263.6 42 263.75 42C264.1 42 262.15 45.85 260.8 47.7C259.6 49.4 257.45 51.45 256.85 51.5C256.6 51.5 256.1 51.85 255.7 52.25C255.25 52.65 254.35 53.15 253.6 53.3C252.1 53.65 251 54.4 251 55.05C251 55.55 252.7 56.5 254.05 56.75C255.65 57.05 258.15 58.8 260.35 61.15C264.7 65.75 265.4 68.7 265.4 81.85C265.45 92.8 265 96.1 263.2 99.6C261.5 102.9 259.25 105.1 255.85 106.8C251.8 108.85 250.4 109.05 235.6 109.15L224.5 109.25V55.2ZM246.95 94.7C248.5 94.1 249.3 93.35 250.1 91.8C251.1 89.9 251.15 88.95 251.15 78.75C251.15 68.65 251.05 67.55 250.1 65.75C248.4 62.4 245.8 61.55 239.15 61.95C238.65 62 238.5 65.75 238.5 79.05V96.15L241.7 95.85C243.4 95.7 245.8 95.15 246.95 94.7ZM246.85 47.2C248.3 46.7 249.25 45.85 250.05 44.6C251.05 42.9 251.15 42.05 251.2 32.75C251.25 22.75 250.9 18.4 250 18.1C249.7 18 249.5 17.65 249.5 17.3C249.5 17 248.75 16.3 247.9 15.75C245.8 14.5 244.5 14.3 240.65 14.4L238.5 14.5V31.45V48.4L241.65 48.2C243.35 48.1 245.7 47.65 246.85 47.2Z" fill="white"></path> <path d="M272.5 84.65C272.5 71.1 272.65 60 272.9 60C273.1 60 276.25 59.95 279.95 59.85L286.6 59.75L294.15 74.75C298.25 83 301.85 89.85 302.05 89.9C302.3 90 302.5 90.4 302.5 90.8C302.5 91.55 303.3 91.75 303.7 91.1C303.85 90.9 303.15 88.15 302.2 85L300.5 79.3L300.6 69.6L300.75 59.9H306.65C309.9 59.9 312.7 60 312.85 60.15C313.2 60.55 313.2 108.5 312.85 108.85C312.7 109 309.55 109.1 305.9 109.1L299.3 109.05L297.35 105.15C296.25 103 295.2 101.2 294.95 101.1C294.7 101 294.5 100.5 294.5 99.95C294.5 99.45 294.3 99 294 99C293.75 99 293.5 98.55 293.5 98C293.5 97.45 293.3 97 293 97C292.75 97 292.5 96.55 292.5 96C292.5 95.45 292.3 95 292 95C291.75 95 291.5 94.55 291.5 94.05C291.5 93.5 291.3 93 291.05 92.9C290.8 92.85 289 89.5 287 85.5C283.7 78.95 282.65 77.2 282.1 77.75C282 77.85 282.65 80.45 283.5 83.5C285.05 89 285.1 89.4 285.05 98.95C285.05 108 284.95 108.75 284.15 108.85C283.65 108.9 280.85 109.05 277.85 109.1L272.5 109.25V84.65Z" fill="white"></path> <path d="M320.5 55.2C320.5 12.35 320.65 1.05001 321.15 0.900005C322.1 0.600005 343.1 0.850005 344.5 1.15001C349.4 2.25001 352.5 4 355.65 7.5C356.95 8.9 358 10.25 358 10.5C358 10.75 358.3 11.25 358.65 11.6C359 11.95 359.75 13.6 360.25 15.25C361.2 18.1 361.25 20 361.2 54.25C361.2 74.05 361.05 91.05 360.85 92C360.05 96.85 358.15 100.35 354.5 103.65C353.1 104.95 351.75 106 351.5 106C351.25 106 350.75 106.3 350.4 106.65C348.4 108.55 344.65 109.05 330.85 109.15L320.5 109.25V55.2ZM343.4 94.7C345.35 93.95 346.45 92.5 346.9 90C347.05 89.3 347.15 73.35 347.2 54.5C347.25 22.25 347.2 20.1 346.35 18.2C345.15 15.55 343.3 14.7 338.4 14.55L334.5 14.45V54.95V95.5H338C340 95.5 342.3 95.15 343.4 94.7Z" fill="white"></path> <path d="M378.35 109.2C378.3 109.15 377.35 108.95 376.3 108.8C373.2 108.3 371.05 106.65 369.7 103.8L368.5 101.25V51.15C368.5 23.55 368.65 0.999997 368.9 0.949997C369.1 0.949997 376.5 0.850003 385.4 0.800003L401.5 0.650002V7.35C401.5 12.3 401.35 14 400.9 14.1C400.55 14.1 400.05 14.2 399.75 14.25C399.5 14.35 395.5 14.4 390.9 14.45L382.5 14.5V31.5V48.45H390.4H398.25V55V61.55H391.1C387.15 61.55 383.6 61.7 383.2 61.85C382.15 62.25 382.15 93.35 383.2 94.8C383.85 95.7 384.6 95.75 392.7 95.75H401.5V102.4C401.5 106 401.35 109 401.15 109.05C400.3 109.1 378.4 109.25 378.35 109.2Z" fill="white"></path> <path d="M194.35 87.65C194.3 87.65 193.35 87.45 192.3 87.3C190.25 86.95 187 85.25 187 84.5C187 84.25 186.65 83.7 186.2 83.25C185.75 82.8 185.2 81.6 184.95 80.6C184.7 79.6 184.5 61.3 184.5 39.95C184.5 9.3 184.65 1.05 185.15 0.849998C185.45 0.749998 188.6 0.599998 192.15 0.599998H198.5V36.75C198.5 72.05 198.5 73 199.45 73.5C200.05 73.8 204.05 74 208.95 74H217.5V80.75V87.45L205.95 87.6C199.6 87.7 194.4 87.7 194.35 87.65Z" fill="white"></path> <path d="M116.35 51.2C116.3 51.15 115.15 51 113.75 50.85C110.3 50.5 109.5 50.25 106.4 48.8C100.75 46.15 97.45 41.5 96.55 34.95C96.3 33.2 96.2 31.6 96.35 31.4C96.45 31.15 99.35 31 102.7 31H108.85L109.2 33.45C109.75 37.7 111.85 39.05 117.7 38.8C120.6 38.7 121.75 38.45 122.55 37.7C124.2 36.25 124.55 35.25 124 33.65C123.45 32.15 121.4 31.15 116.65 30.2C116 30.1 115 29.9 114.4 29.75C113.75 29.65 112.6 29.4 111.75 29.25C110.95 29.1 109.8 28.8 109.25 28.65C108.7 28.45 108.05 28.25 107.75 28.2C106.2 27.9 101.5 25.4 100.15 24.15C97.3 21.55 95.75 16.2 96.7 12.25C97.5 8.75 101.45 3.5 103.2 3.5C103.65 3.5 104 3.3 104 3.05C104 2.85 105.7 2.15 107.75 1.55C111.55 0.400002 118.1 -0.0499993 121.25 0.650001C122.1 0.800001 123.25 1.05 123.8 1.2C126.05 1.65 130.1 4.1 132.3 6.25C134.9 8.8 136.3 11.7 136.75 15.25C136.9 16.65 137.15 18.1 137.3 18.6C137.7 19.95 136.5 20.25 130.45 20.25H124.6L124.3 17.8C124 15.1 123.45 14.25 121.35 13.15C119.4 12.15 114.3 12.2 111.9 13.2C109.5 14.2 108.85 15.4 109.55 17.4C110.05 18.9 112.45 20.3 115.4 20.8C116 20.9 117.05 21.1 117.75 21.25C118.45 21.4 119.6 21.6 120.4 21.75C121.15 21.9 122.2 22.2 122.75 22.35C123.85 22.7 124.25 22.85 125.8 23.2C128 23.65 132.2 26.15 134.05 28.05C136.25 30.3 137.15 32.95 136.95 36.7C136.5 45 131.05 49.6 120.1 50.9C118.1 51.15 116.45 51.25 116.35 51.2Z" fill="white"></path> <path d="M272.6 32.25L272.75 14.25L274.05 11.45C277.3 4.54999 283.6 0.549997 291.85 0.249997C296.45 0.0499966 299.5 0.699994 303.45 2.69999C306.25 4.14999 310.5 8.1 310.5 9.3C310.5 9.7 310.7 10 310.95 10C311.2 10 311.8 11.25 312.25 12.85C312.95 15.2 313.1 18.6 313.2 32.6C313.25 44.2 313.1 49.7 312.75 50C312.45 50.25 309.6 50.4 306.35 50.4L300.5 50.35V45.9V41.5H292.8H285.05L285.1 45.5C285.1 47.75 284.95 49.7 284.75 49.9C284.55 50.1 281.7 50.25 278.4 50.25H272.45L272.6 32.25ZM300.5 23.2C300.5 17.75 300.35 16.65 299.5 15.25C298.25 13.2 296 12.25 292.7 12.25C289.15 12.3 287.25 13.25 286.2 15.4C285.25 17.4 284.65 24.8 285.2 27.75L285.55 29.5H293H300.5V23.2Z" fill="white"></path> </svg>